<svg width="101" height="97" viewBox="0 0 101 97" fill="none" xmlns="http://www.w3.org/2000/svg">
<g opacity="0.79">
<path d="M95.1077 1L56.423 30.698L63.6083 13.1766L95.1077 1Z" fill="#E2761B" stroke="#E2761B" stroke-linecap="round" stroke-linejoin="round"/>
<path d="M5.89294 1L44.2273 30.9785L37.3923 13.1766L5.89294 1Z" fill="#E4761B" stroke="#E4761B" stroke-linecap="round" stroke-linejoin="round"/>
<path d="M81.2023 69.8384L70.9102 86.1544L92.9319 92.424L99.2234 70.2008L81.2023 69.8384Z" fill="#E4761B" stroke="#E4761B" stroke-linecap="round" stroke-linejoin="round"/>
<path d="M1.81677 70.2007L8.06938 92.4239L30.0911 86.1543L19.8378 69.8383L1.81677 70.2007Z" fill="#E4761B" stroke="#E4761B" stroke-linecap="round" stroke-linejoin="round"/>
<path d="M28.8865 42.2705L22.7493 51.8755L44.5778 52.8809L43.8397 28.5679L28.8865 42.2705Z" fill="#E4761B" stroke="#E4761B" stroke-linecap="round" stroke-linejoin="round"/>
<path d="M72.1143 42.2707L56.929 28.2861L56.423 52.881L78.2515 51.8757L72.1143 42.2707Z" fill="#E4761B" stroke="#E4761B" stroke-linecap="round" stroke-linejoin="round"/>
<path d="M30.0901 86.1546L43.257 79.524L31.9153 70.3621L30.0901 86.1546Z" fill="#E4761B" stroke="#E4761B" stroke-linecap="round" stroke-linejoin="round"/>
<path d="M57.7427 79.524L70.9096 86.1546L69.0844 70.3621L57.7427 79.524Z" fill="#E4761B" stroke="#E4761B" stroke-linecap="round" stroke-linejoin="round"/>
<path d="M70.9096 86.1542L57.7427 79.5237L58.7922 88.4052L58.6754 92.1419L70.9096 86.1542Z" fill="#FFE9DB" stroke="#FFE9DB" stroke-linecap="round" stroke-linejoin="round"/>
<path d="M30.0901 86.1542L42.3242 92.1419L42.2464 88.4052L43.257 79.5237L30.0901 86.1542Z" fill="#FFE9DB" stroke="#FFE9DB" stroke-linecap="round" stroke-linejoin="round"/>
<path d="M42.5575 64.4933L31.605 61.1579L39.3339 57.5017L42.5575 64.4933Z" fill="#233447" stroke="#233447" stroke-linecap="round" stroke-linejoin="round"/>
<path d="M58.442 64.4933L61.6656 57.5017L69.4334 61.1579L58.442 64.4933Z" fill="#233447" stroke="#233447" stroke-linecap="round" stroke-linejoin="round"/>
<path d="M58.6758 92.1424L58.7926 88.4057L57.8209 87.5212H43.1791L42.2464 88.4057L42.3242 92.1424L30.0901 86.1548L34.3618 89.7721L43.0624 95.9999H57.9377L66.6382 89.7721L70.91 86.1548L58.6758 92.1424Z" fill="#D9C2B0" stroke="#D9C2B0" stroke-linecap="round" stroke-linejoin="round"/>
<path d="M30.0903 86.1544L31.9933 69.8384L19.837 70.2008L30.0903 86.1544Z" fill="#CD6116" stroke="#CD6116" stroke-linecap="round" stroke-linejoin="round"/>
<path d="M69.0074 69.8384L70.9105 86.1544L81.2027 70.2008L69.0074 69.8384Z" fill="#CD6116" stroke="#CD6116" stroke-linecap="round" stroke-linejoin="round"/>
<path d="M78.2515 51.8757L56.423 52.8811L58.4428 64.4939L61.6664 57.5024L69.4342 61.1585L78.2515 51.8757Z" fill="#CD6116" stroke="#CD6116" stroke-linecap="round" stroke-linejoin="round"/>
<path d="M31.6055 61.1585L39.3344 57.5024L42.558 64.4939L44.5778 52.8811L22.7493 51.8757L31.6055 61.1585Z" fill="#CD6116" stroke="#CD6116" stroke-linecap="round" stroke-linejoin="round"/>
<path d="M22.7493 51.8757L31.9155 70.3622L31.6055 61.1585L22.7493 51.8757Z" fill="#E4751F" stroke="#E4751F" stroke-linecap="round" stroke-linejoin="round"/>
<path d="M69.4331 61.1585L69.0842 70.3622L78.2505 51.8757L69.4331 61.1585Z" fill="#E4751F" stroke="#E4751F" stroke-linecap="round" stroke-linejoin="round"/>
<path d="M44.5772 52.8809L42.5574 64.4937L45.1207 78.1978L45.6642 60.1543L44.5772 52.8809Z" fill="#E4751F" stroke="#E4751F" stroke-linecap="round" stroke-linejoin="round"/>
<path d="M56.4221 52.8809L55.374 60.1141L55.8786 78.1978L58.4419 64.4937L56.4221 52.8809Z" fill="#E4751F" stroke="#E4751F" stroke-linecap="round" stroke-linejoin="round"/>
<path d="M58.442 64.4936L55.8787 78.1977L57.7428 79.5238L69.0845 70.3619L69.4334 61.1582L58.442 64.4936Z" fill="#F6851B" stroke="#F6851B" stroke-linecap="round" stroke-linejoin="round"/>
<path d="M31.605 61.1582L31.915 70.3619L43.2567 79.5238L45.1208 78.1977L42.5575 64.4936L31.605 61.1582Z" fill="#F6851B" stroke="#F6851B" stroke-linecap="round" stroke-linejoin="round"/>
<path d="M57.7434 79.5244L55.8793 78.1982H45.1214L43.2573 79.5244L42.2467 88.4058L43.1795 87.5213H57.8212L58.7929 88.4058L57.7434 79.5244Z" fill="#161616" stroke="#161616" stroke-linecap="round" stroke-linejoin="round"/>
<path d="M96.7373 32.6267L99.9999 16.2301L95.1068 1L57.7427 29.6926L72.1134 42.2705L92.4267 48.4193L96.893 42.994L94.9511 41.5485L98.0579 38.6144L95.6892 36.6856L98.7961 34.2333L96.7373 32.6267Z" fill="#763D16" stroke="#763D16" stroke-linecap="round" stroke-linejoin="round"/>
<path d="M1 16.2305L4.30145 32.6271L2.20381 34.2337L5.31066 36.686L2.94195 38.6147L6.04879 41.5489L4.10684 42.9944L8.57319 48.4196L28.8865 42.2709L43.2572 29.693L5.8931 1.00037L1 16.2305Z" fill="#763D16" stroke="#763D16" stroke-linecap="round" stroke-linejoin="round"/>
<path d="M92.4266 48.4192L72.1132 42.2705L78.2505 51.8755L69.0842 70.3619L81.2016 70.2008H99.2227L92.4266 48.4192Z" fill="#F6851B" stroke="#F6851B" stroke-linecap="round" stroke-linejoin="round"/>
<path d="M28.8873 42.2706L8.57398 48.4194L1.81677 70.2009H19.8378L31.9163 70.362L22.7501 51.8756L28.8873 42.2706Z" fill="#F6851B" stroke="#F6851B" stroke-linecap="round" stroke-linejoin="round"/>
<path d="M56.4226 52.2755L57.7432 29.0873L63.608 12.5713H37.3923L43.2571 29.0873L44.5777 52.2755L45.0823 59.5893L45.1212 77.5925H55.8791L55.918 59.5893L56.4226 52.2755Z" fill="#F6851B" stroke="#F6851B" stroke-linecap="round" stroke-linejoin="round"/>
</g>
</svg>
